<?xml version="1.0" encoding="UTF-8"?>
<svg version="1.1" xmlns="http://www.w3.org/2000/svg" width="556" height="295">
<path d="M0 0 C1.39992187 0.680625 1.39992187 0.680625 2.828125 1.375 C19.6650606 10.02862053 19.6650606 10.02862053 23.25 17.9375 C24.5161023 22.54068622 23.7769329 26.63036045 22 31 C20.03795237 34.43358335 17.79303112 36.58546101 14.25 38.4375 C9.09197393 39.33023528 4.42896631 39.52588909 -0.1328125 36.66015625 C-1.91294908 35.18631848 -3.52908788 33.7830671 -5 32 C-5 31.34 -5 30.68 -5 30 C-6.010625 29.8865625 -7.02125 29.773125 -8.0625 29.65625 C-13.17178731 28.80470211 -17.68047684 27.00660264 -22.5 25.15625 C-26.08033092 23.97346211 -29.25172989 23.39331271 -33 23 C-33.75297363 22.9175 -34.50594727 22.835 -35.28173828 22.75 C-50.54801575 21.33836194 -63.46522975 24.10986881 -77.86245728 28.61410522 C-92.34253534 33.13399088 -106.88106759 36.56644113 -121.75 39.5625 C-122.7800415 39.77364441 -123.81008301 39.98478882 -124.87133789 40.20233154 C-164.33930256 48.26212366 -164.33930256 48.26212366 -174.3125 44.875 C-177.6622923 42.5379356 -178.73256153 40.87687061 -180 37 C-180 32.79492218 -179.45030247 30.65366488 -177.0625 27.1875 C-174.17162407 25.12258862 -173.16924474 24.64826337 -169.86328125 24.05859375 C-168.97278076 23.89431885 -168.08228027 23.73004395 -167.16479492 23.56079102 C-166.1204126 23.37572998 -165.07603027 23.19066895 -164 23 C-161.37724936 22.52006765 -158.75481392 22.03867476 -156.1328125 21.5546875 C-155.06208496 21.35727211 -155.06208496 21.35727211 -153.96972656 21.15586853 C-127.66080576 16.28033692 -102.72352563 9.50251129 -77.9230957 -0.60791016 C-77.24727448 -0.88310486 -76.57145325 -1.15829956 -75.87515259 -1.4418335 C-74.04127341 -2.19176435 -72.21034375 -2.94889658 -70.37963867 -3.70654297 C-48.84202731 -11.94942854 -20.55424733 -10.21906082 0 0 Z " fill="#1E1E1E" transform="translate(189,13)"/>
<path d="M0 0 C1.79733214 -0.01656976 3.59459812 -0.04387346 5.39160156 -0.08203125 C21.70530897 -0.42425605 33.98246435 2.47597111 48.45117188 10.35009766 C49.2478125 10.76259766 50.04445313 11.17509766 50.86523438 11.60009766 C56.56835883 14.64176403 60.69217779 17.89910654 64.32617188 23.35009766 C65.04997912 28.24000474 64.85255154 32.25684758 62.70117188 36.72509766 C59.65703413 40.08967095 57.02077895 42.89841801 52.37011719 43.67797852 C45.74383576 43.90711863 41.40858661 41.82932004 35.76367188 38.53759766 C22.49902075 31.03273855 11.43899237 29.01374266 -3.79882812 28.85009766 C-4.57352448 28.84131592 -5.34822083 28.83253418 -6.14639282 28.82348633 C-28.22731404 28.69369399 -50.17803227 31.45155661 -72.09423828 33.85986328 C-73.20704178 33.98136246 -73.20704178 33.98136246 -74.34232616 34.10531616 C-77.85544483 34.48904316 -81.36763316 34.87854589 -84.87843323 35.28295898 C-106.47908302 37.68641923 -106.47908302 37.68641923 -112.67382812 33.35009766 C-115.52514089 30.78391616 -115.67314634 29.35538146 -116.17382812 25.47509766 C-115.98051217 21.89541951 -115.14756617 19.25276631 -112.59326172 16.57983398 C-110.05684924 14.95481368 -107.72113209 14.48188934 -104.77539062 13.86181641 C-103.61144775 13.61117432 -102.44750488 13.36053223 -101.24829102 13.10229492 C-99.47893188 12.72995728 -99.47893188 12.72995728 -97.67382812 12.35009766 C-95.5810754 11.87487545 -93.48862129 11.39833612 -91.39648438 10.92041016 C-77.21692092 7.80290992 -63.06596154 5.40833075 -48.67382812 3.53759766 C-47.87067169 3.43263977 -47.06751526 3.32768188 -46.24002075 3.21954346 C-30.82076037 1.22342426 -15.55190507 0.10446995 0 0 Z " fill="#1E1E1E" transform="translate(486.673828125,10.64990234375)"/>
<path d="M0 0 C3.99322962 2.54114612 5.61949901 4.52248829 7 9 C7.38240366 12.07527786 7.54412135 15.16210979 7.7421875 18.25390625 C8.6662913 29.72395701 11.32293437 40.51058607 14.25079346 51.61105347 C20.36961991 74.89382251 25.02518847 98.21407374 28.81985474 121.97447205 C29.80357245 128.05346846 31.05184969 134.03316963 32.38549805 140.04541016 C33.86684178 147.16786618 34.22418886 154.30332432 34.3125 161.5625 C34.34150391 162.36107422 34.37050781 163.15964844 34.40039062 163.98242188 C34.46211119 169.80789329 33.33072308 174.16588139 30 179 C27.10854939 181.63024814 23.82268424 182.80210857 19.94921875 183.22265625 C15.12109033 182.98828108 12.07547697 181.01702945 8.4453125 177.9609375 C4.55721694 172.68573757 4.84269265 166.65559909 5.0703125 160.42578125 C5.2906626 147.24559541 3.67201536 134.26866511 2.1140976 121.2002449 C1.87193213 119.16167443 1.63399526 117.12264704 1.39703369 115.08346558 C-0.74885985 96.67279212 -3.37092104 78.52536874 -7.29589844 60.40136719 C-9.5847711 49.3443027 -11.28553077 38.15739216 -13 27 C-13.22526367 25.5454541 -13.22526367 25.5454541 -13.45507812 24.06152344 C-13.82976203 21.5645358 -14.17364941 19.06620431 -14.5 16.5625 C-14.60151367 15.87760498 -14.70302734 15.19270996 -14.80761719 14.48706055 C-15.40009557 9.39860261 -14.38199304 6.39878349 -12 2 C-7.78159173 -0.99975699 -4.93301994 -1.57436807 0 0 Z " fill="#1E1E1E" transform="translate(299,107)"/>
<path d="M0 0 C4.46227092 3.86949693 7.93543123 8.08572904 9 14 C9.13586771 17.34133913 9.1188663 20.65853613 9 24 C9.99 24.33 10.98 24.66 12 25 C16.81952965 32.03205394 18.94518262 40.56606279 18 49 C16.15483544 56.38065823 12.4038816 62.7307456 6 67 C-2.36958622 70.43177724 -13.93771012 70.57431374 -22.5 67.4375 C-32.05934412 62.80414443 -40.20540567 55.64235099 -43.875 45.5 C-46.84121223 34.02358365 -46.16397466 19.95702054 -40.640625 9.40234375 C-36.50928294 2.85395363 -32.80960284 -0.66393238 -25.25 -2.75 C-15.97103703 -4.80316907 -8.42316625 -4.97606191 0 0 Z " fill="#1E1E1E" transform="translate(118,97)"/>
<path d="M0 0 C1.36400564 1.64165897 2.6957303 3.31049234 4 5 C4.66 5.75539063 5.32 6.51078125 6 7.2890625 C12.41728465 14.78425043 16.81318202 22.69531885 16.25390625 32.81640625 C15.01093277 43.50597814 11.36224839 50.31902391 3.2578125 57.45703125 C-3.08890382 61.79432009 -8.41319191 62.49959106 -15.9375 62.4375 C-16.79279297 62.45748047 -17.64808594 62.47746094 -18.52929688 62.49804688 C-26.77623131 62.49175631 -32.59194711 59.68886423 -38.75 54.25 C-39.46671875 53.63640625 -40.1834375 53.0228125 -40.921875 52.390625 C-46.34749589 46.14912127 -47.67718008 40.26290442 -47.5 32.125 C-47.48864014 31.24021973 -47.47728027 30.35543945 -47.46557617 29.44384766 C-47.27016148 22.88444814 -46.19118194 17.77749934 -43 12 C-42.43925781 10.71222656 -42.43925781 10.71222656 -41.8671875 9.3984375 C-38.75894406 2.42032805 -35.08317698 -2.21361007 -28 -5.3125 C-26.515 -5.6528125 -26.515 -5.6528125 -25 -6 C-23.9275 -6.2475 -22.855 -6.495 -21.75 -6.75 C-13.60582412 -7.29294506 -6.29230494 -5.31686029 0 0 Z " fill="#1E1E1E" transform="translate(479,97)"/>
</svg>
